# xmcd
# 
# Track frame offsets:
#     150
#     16725
#     31212
#     46150
#     57562
#     72875
#     85232
#     99122
#     116505
#     128305
#     149385
#     164120
#     179682
# 
# Disc length: 2542
# 
# Revision: 5
# Processed by: cddbd v1.5.2PL0 Copyright (c) Steve Scherf et al.
# Submitted via: fre:ac v1.0.17
# 
DISCID=a809ec0d
DTITLE=Waylon Jennings - Lonesome, On'ry and Mean
DYEAR=1973
DGENRE=Country
TTITLE0=Lonesome, On'ry And Mean
TTITLE1=Freedom To Stay
TTITLE2=Lay It Down
TTITLE3=Gone To Denver
TTITLE4=Good Time Charlie's Got The Blues
TTITLE5=You Can Have Her
TTITLE6=Pretend I Never Happened
TTITLE7=San Francisco Mabel Joy
TTITLE8=Sandy Sends Her Best
TTITLE9=Me And Bobby McGee
TTITLE10=Laid Back Country Picker (Bonus Track - not on original album)
TTITLE11=The Last One To Leave Seattle (Bonus Track - not on original album)
TTITLE12=Big, Big Love (Bonus Track - not on original album)
EXTD=
EXTT0=
EXTT1=
EXTT2=
EXTT3=
EXTT4=
EXTT5=
EXTT6=
EXTT7=
EXTT8=
EXTT9=
EXTT10=
EXTT11=
EXTT12=
PLAYORDER=
